<svg xmlns="http://www.w3.org/2000/svg" width="30.052" height="31.222" viewBox="0 0 30.052 31.222"><g transform="translate(-99.4 -157.755)"><path d="M15.542,30.114c5.549-8.055,11.764-10.538,14.075-12.991,10.882-11.9-9.377-25.433-14.1-6.9C10.806-.642-.181,7.49,7.775,16.108c1.9,2.06-2.276,4.951-1.906,7.087.36,2.076,3.8,5.325,9.673,6.919m-.3-22.688a13.018,13.018,0,0,1,3.787-5.512A8.359,8.359,0,0,1,25.572.09a9.975,9.975,0,0,1,7.691,6.281c1.6,4.172.077,8.337-2.831,11.5a16.194,16.194,0,0,1-2.555,2.1c-1.14.809-2.288,1.594-3.4,2.44a35.8,35.8,0,0,0-8.021,8.333,1.09,1.09,0,0,1-1.2.44A20.988,20.988,0,0,1,7.961,27.71c-1.316-1.02-2.886-2.615-3.182-4.326-.242-1.4.679-2.758,1.389-3.882.316-.5,1.074-1.646.993-2.259a.692.692,0,0,0-.2-.385c-1.851-2-3.3-4.626-3.082-7.436a5.953,5.953,0,0,1,3.261-5,5.568,5.568,0,0,1,5.024.151,8.592,8.592,0,0,1,3.081,2.853" transform="translate(95.542 157.754)" fill="#fff" fill-rule="evenodd"/><path d="M88.954,28.444c-.61-.079-1.216-.172-1.823-.274l-.06.19c-.295.927-.674,1.824-.993,2.742.608.1,1.214.193,1.827.269.339-.979.694-1.953,1.049-2.926m2.058,3.291q.1-.332.215-.661c.258-.761.539-1.514.807-2.272-.269-.033-.537-.065-.806-.095-.5-.055-1.01-.111-1.514-.17-.356.972-.712,1.945-1.047,2.924q.5.058,1.009.113c.446.049.891.1,1.336.161m.77.1c.531.07,1.062.141,1.594.207q.2-.733.41-1.462c.149-.513.309-1.021.464-1.531-.485-.046-.969-.1-1.453-.157-.24.68-.489,1.356-.724,2.037-.1.3-.2.6-.293.905m-.173.579c-.25.853-.483,1.71-.758,2.555l-.008.023c.592.078,1.182.14,1.777.194.18-.873.387-1.74.612-2.6-.542-.048-1.083-.108-1.623-.171m-4.057,2.1c.407.056.815.113,1.221.176q.656.1,1.312.2.063-.2.123-.4c.214-.72.412-1.444.625-2.164-.289-.035-.579-.07-.868-.1-.5-.055-1-.11-1.5-.168q-.052.156-.1.313c-.144.443-.3.879-.473,1.313-.11.28-.226.558-.339.836m-2.42-.322c.548.076,1.1.147,1.646.219.121-.3.247-.6.367-.9.17-.427.328-.858.473-1.294l.085-.255c-.609-.079-1.213-.171-1.819-.273-.264.832-.506,1.67-.751,2.507m7.105-5.975a17.86,17.86,0,0,0,.968-3.978c.04-.406.8-.313.759.091A17.926,17.926,0,0,1,93,28.317c.472.062.945.125,1.417.185.074-.251.146-.5.213-.757a9.358,9.358,0,0,1,.82-2.265.3.3,0,0,1,.054-.069.407.407,0,0,1,.331-.092.389.389,0,0,1,.338.238.272.272,0,0,1-.028.215,11.872,11.872,0,0,0-.918,2.687l-.04.138a2.846,2.846,0,0,0,.723.025c.161-.024.329-.072.489-.107a.421.421,0,0,1,.215.014c.149.047.32.189.291.363a.28.28,0,0,1-.243.213,3.537,3.537,0,0,1-.729.05c-.3,0-.6-.018-.9-.039-.2.65-.412,1.3-.593,1.953q-.146.532-.289,1.065a2.062,2.062,0,0,0,.5,0c.161-.024.329-.072.489-.107a.42.42,0,0,1,.215.014c.149.047.32.189.291.363a.28.28,0,0,1-.243.213,3.228,3.228,0,0,1-.632.05c-.25,0-.5-.009-.752-.024-.226.866-.44,1.736-.625,2.611l.843.072c.486.042.411.648-.067.607l-.9-.077q-.1.51-.184,1.022a.29.29,0,0,1-.068.145.4.4,0,0,1-.345.113c-.19-.021-.379-.155-.344-.367q.081-.492.174-.983c-.619-.058-1.235-.125-1.851-.206a25.367,25.367,0,0,0-.789,2.726.281.281,0,0,1-.058.121.4.4,0,0,1-.346.121c-.189-.017-.4-.146-.35-.364a26,26,0,0,1,.79-2.71c-.524-.076-1.047-.156-1.57-.237-.333-.051-.667-.1-1-.146l-.025.069a7.843,7.843,0,0,0-.323,1.164,11.291,11.291,0,0,0-.178,1.586c-.019.369-.779.29-.76-.077a11.733,11.733,0,0,1,.18-1.623A8.17,8.17,0,0,1,86.552,35l.007-.021c-.529-.078-1.058-.16-1.584-.254l-.015.05c-.294.995-.431,2.034-.8,3.008-.06.159-.27.15-.407.126a.9.9,0,0,1-.194-.055c-.095-.04-.184-.12-.141-.235.371-.978.534-2.029.812-3.037-.226-.047-.451-.1-.673-.16a3.166,3.166,0,0,1-.582-.208.281.281,0,0,1-.18-.269c.018-.175.219-.268.375-.275a.419.419,0,0,1,.212.043c.146.075.3.164.445.23a2.264,2.264,0,0,0,.55.139c.25-.843.483-1.691.752-2.528l-.984-.175c-.476-.085-.385-.689.093-.6l1.086.193c.339-.981.733-1.943,1.051-2.931l-.968-.172c-.476-.085-.386-.689.093-.6l1.06.189a11.14,11.14,0,0,1,1.01-2.381c.081-.135.266-.123.4-.1a1.062,1.062,0,0,1,.19.057.438.438,0,0,1,.075.039.154.154,0,0,1,.056.21,10.876,10.876,0,0,0-.974,2.3c.617.1,1.23.2,1.851.273.481-1.323.953-2.649,1.37-3.994a.251.251,0,0,1,.034-.069.392.392,0,0,1,.366-.128c.14.014.322.081.353.237a.217.217,0,0,1-.005.108c-.412,1.326-.88,2.633-1.356,3.937q.5.058,1.009.113c.434.048.867.1,1.3.156" transform="translate(29 137.806)" fill="#fff" fill-rule="evenodd"/><path d="M29.934,129.879c1.487,2.817,4.194,4.144,7.137,4.968a.2.2,0,0,1,.121.29c-.464.833-.913,1.675-1.354,2.52a.2.2,0,0,1-.242.1q-.337-.116-.67-.245a14.629,14.629,0,0,1-4.23-2.419,4.939,4.939,0,0,1-1.873-2.926,2.656,2.656,0,0,1,.1-1.069,3.893,3.893,0,0,1,.674-1.245.2.2,0,0,1,.334.03" transform="translate(74.51 48.358)" fill="#fff" fill-rule="evenodd"/></g></svg>