<?xml version="1.0" encoding="iso-8859-1"?>
<!-- Uploaded to: SVG Repo, www.svgrepo.com, Generator: SVG Repo Mixer Tools -->
<svg version="1.1" id="Layer_1" xmlns="http://www.w3.org/2000/svg" xmlns:xlink="http://www.w3.org/1999/xlink" 
	 viewBox="0 0 512 512" xml:space="preserve">
<polygon style="fill:#CFCDD2;" points="437.287,401.456 437.287,213.918 399.779,213.918 399.779,401.456 356.021,401.456 
	356.021,438.964 481.046,438.964 481.046,401.456 "/>
<g>
	<polygon style="fill:#DFDFE1;" points="112.221,213.918 74.713,213.918 74.713,401.456 30.954,401.456 30.954,438.964 
		155.979,438.964 155.979,401.456 112.221,401.456 	"/>
	<rect x="237.249" y="138.903" style="fill:#DFDFE1;" width="37.508" height="275.056"/>
</g>
<rect x="193.49" y="401.457" style="fill:#CFCDD2;" width="125.026" height="37.508"/>
<rect x="105.972" y="120.15" style="fill:#E17858;" width="300.062" height="37.508"/>
<g>
	<rect x="256.003" y="120.15" style="fill:#FF4F19;" width="150.031" height="37.508"/>
	<polygon style="fill:#FF4F19;" points="484.194,232.671 356.021,232.671 356.021,195.164 452.892,195.164 475.097,73.035 
		512,79.744 	"/>
</g>
<polygon style="fill:#E17858;" points="155.979,232.671 27.804,232.671 0,79.744 36.903,73.035 59.107,195.164 155.979,195.164 "/>
</svg>